<svg xmlns="http://www.w3.org/2000/svg" viewBox="0 0 128 128">
  <path d="M9 11C7.3 11 6 12.3 6 14C6 15.7 7.3 17 9 17L16 17L16 91C16 96.5 20.5 101 26 101L76 101C77.7 101 79 99.7 79 98C79 96.3 77.7 95 76 95L26 95C23.8 95 22 93.2 22 91L22 27L109.30078 27C110.60078 27 111.8 27.599219 112.5 28.699219C113.3 29.799219 113.5 31.100781 113 32.300781L99.300781 73.5C97.800781 78 93.700391 81 88.900391 81L33 81C31.3 81 30 82.3 30 84C30 85.7 31.3 87 33 87L88.900391 87C96.200391 87 102.7 82.300391 105 75.400391L118.69922 34.199219C119.69922 31.099219 119.20078 27.799219 117.30078 25.199219C115.40078 22.599219 112.39922 21 109.19922 21L22 21L22 14C22 12.3 20.7 11 19 11L9 11 z M 26 107C20.5 107 16 111.5 16 117C16 122.5 20.5 127 26 127C31.5 127 36 122.5 36 117C36 111.5 31.5 107 26 107 z M 76 107C70.5 107 66 111.5 66 117C66 122.5 70.5 127 76 127C81.5 127 86 122.5 86 117C86 111.5 81.5 107 76 107 z M 26 113C28.2 113 30 114.8 30 117C30 119.2 28.2 121 26 121C23.8 121 22 119.2 22 117C22 114.8 23.8 113 26 113 z M 76 113C78.2 113 80 114.8 80 117C80 119.2 78.2 121 76 121C73.8 121 72 119.2 72 117C72 114.8 73.8 113 76 113 z" fill="#FFFFFF" />
</svg>