<svg xmlns="http://www.w3.org/2000/svg" viewBox="0 0 128 128" fill="#3f4b5c" ><path d="M37 11C35.3 11 34 12.3 34 14C34 15.7 35.3 17 37 17L44 17L44 24C44 25.7 45.3 27 47 27L117.30078 27C118.60078 27 119.8 27.599219 120.5 28.699219C121.2 29.799219 121.5 31.100781 121 32.300781L107.30078 73.5C105.80078 78 101.60039 81 96.900391 81L44 81C38.5 81 34 85.5 34 91C34 96.5 38.5 101 44 101L81.5 101C85.1 101 88 103.9 88 107.5C88 109.2 89.3 110.5 91 110.5C92.7 110.5 94 109.2 94 107.5C94 100.6 88.4 95 81.5 95L44 95C41.8 95 40 93.2 40 91C40 88.8 41.8 87 44 87L96.900391 87C104.20039 87 110.7 82.300391 113 75.400391L126.69922 34.199219C127.69922 31.099219 127.20078 27.799219 125.30078 25.199219C123.50078 22.499219 120.50078 21 117.30078 21L50 21L50 14C50 12.3 48.7 11 47 11L37 11 z M 15 41C13.3 41 12 42.3 12 44C12 45.7 13.3 47 15 47L35 47C36.7 47 38 45.7 38 44C38 42.3 36.7 41 35 41L15 41 z M 4 60.925781C3.8 60.925781 3.6003906 60.95 3.4003906 61C3.2003906 61 3.0007812 61.099219 2.8007812 61.199219C2.6007812 61.299219 2.5007813 61.4 2.3007812 61.5C2.1007812 61.6 2.0003906 61.700391 1.9003906 61.900391C1.3003906 62.400391 1 63.2 1 64C1 64.8 1.3003906 65.599609 1.9003906 66.099609C2.0003906 66.299609 2.2007812 66.4 2.3007812 66.5C2.5007813 66.6 2.6007813 66.700781 2.8007812 66.800781C3.0007813 66.900781 3.2003906 66.9 3.4003906 67L4 67C4.2 67 4.3996094 67.000391 4.5996094 66.900391C4.7996094 66.900391 4.9992188 66.799219 5.1992188 66.699219C5.3992188 66.599219 5.5992188 66.500391 5.6992188 66.400391C5.8992188 66.300391 5.9996094 66.2 6.0996094 66C6.6996094 65.6 7 64.8 7 64C7 63.2 6.6996094 62.400391 6.0996094 61.900391L5.6992188 61.5C5.4992187 61.4 5.3992188 61.299219 5.1992188 61.199219C4.9992187 61.099219 4.7996094 61.1 4.5996094 61C4.3996094 60.95 4.2 60.925781 4 60.925781 z M 20 61C18.3 61 17 62.3 17 64C17 65.7 18.3 67 20 67L50 67C51.7 67 53 65.7 53 64C53 62.3 51.7 61 50 61L20 61 z M 44 107C38.5 107 34 111.5 34 117C34 122.5 38.5 127 44 127C49.5 127 54 122.5 54 117C54 111.5 49.5 107 44 107 z M 79.0625 109C78.3 109 77.55 109.30039 77 109.90039C75.1 111.80039 74.099609 114.3 74.099609 117C74.099609 122.5 78.599609 127 84.099609 127C89.599609 127 94.099609 122.5 94.099609 117C94.099609 115.3 92.799609 114 91.099609 114C89.399609 114 88.099609 115.3 88.099609 117C88.099609 119.2 86.299609 121 84.099609 121C81.899609 121 80.099609 119.2 80.099609 117C80.099609 115.9 80.500781 114.89922 81.300781 114.19922C82.300781 112.99922 82.299219 111.10039 81.199219 109.90039C80.599219 109.30039 79.825 109 79.0625 109 z M 44 113C46.2 113 48 114.8 48 117C48 119.2 46.2 121 44 121C41.8 121 40 119.2 40 117C40 114.8 41.8 113 44 113 z"/></svg>