<svg xmlns="http://www.w3.org/2000/svg" viewBox="0 0 128 128" fill="#3f4b5c"><path d="M24 1C16.8 1 11 6.8 11 14L11 90C11 91.7 12.3 93 14 93C15.7 93 17 91.7 17 90L17 14C17 10.1 20.1 7 24 7L103 7C101.7 9 101 11.4 101 14L101 68C101 69.7 102.3 71 104 71C105.7 71 107 69.7 107 68L107 14C107 10.1 110.1 7 114 7C117.9 7 121 10.1 121 14L121 21L114 21C112.3 21 111 22.3 111 24C111 25.7 112.3 27 114 27L124 27C125.7 27 127 25.7 127 24L127 14C127 6.8 121.2 1 114 1L24 1 z M 35 41 A 3 3 0 0 0 32 44 A 3 3 0 0 0 35 47 A 3 3 0 0 0 38 44 A 3 3 0 0 0 35 41 z M 50 41C48.3 41 47 42.3 47 44C47 45.7 48.3 47 50 47L84 47C85.7 47 87 45.7 87 44C87 42.3 85.7 41 84 41L50 41 z M 35 56 A 3 3 0 0 0 32 59 A 3 3 0 0 0 35 62 A 3 3 0 0 0 38 59 A 3 3 0 0 0 35 56 z M 50 56C48.3 56 47 57.3 47 59C47 60.7 48.3 62 50 62L84 62C85.7 62 87 60.7 87 59C87 57.3 85.7 56 84 56L50 56 z M 35 71 A 3 3 0 0 0 32 74 A 3 3 0 0 0 35 77 A 3 3 0 0 0 38 74 A 3 3 0 0 0 35 71 z M 50 71C48.3 71 47 72.3 47 74C47 75.7 48.3 77 50 77L84 77C85.7 77 87 75.7 87 74C87 72.3 85.7 71 84 71L50 71 z M 112 79C110.3 79 109 80.3 109 82L109 82.400391C104.3 83.700391 100.90039 87.999609 100.90039 93.099609C100.90039 96.699609 102.59961 99.999609 105.59961 102.09961L114.90039 108.59961C116.30039 109.59961 117.19922 111.10078 117.19922 112.80078C117.19922 115.60078 114.89961 117.90039 112.09961 117.90039C110.09961 117.90039 108.20039 116.70078 107.40039 114.80078C106.70039 113.30078 105 112.59922 103.5 113.19922C102 113.89922 101.30039 115.59961 101.90039 117.09961C103.30039 120.19961 105.89961 122.50039 109.09961 123.40039L109.09961 123.80078C109.09961 125.50078 110.39961 126.80078 112.09961 126.80078C113.79961 126.80078 115.09961 125.50078 115.09961 123.80078L115.09961 123.40039C119.79961 122.10039 123.19922 117.79922 123.19922 112.69922C123.19922 108.99922 121.40039 105.6 118.40039 103.5L109.19922 97C107.89922 96 107.09961 94.500781 107.09961 92.800781C107.09961 90.000781 109.39922 87.699219 112.19922 87.699219C114.29922 87.699219 116.10039 88.900781 116.90039 90.800781C117.50039 92.300781 119.30078 93.000391 120.80078 92.400391C122.30078 91.800391 123.00039 90 122.40039 88.5C121.10039 85.3 118.39922 82.999609 115.19922 82.099609L115.19922 82C114.99922 80.3 113.7 79 112 79 z M 4 101C2.3 101 1 102.3 1 104L1 114C1 121.2 6.8 127 14 127L94 127C95.7 127 97 125.7 97 124C97 122.3 95.7 121 94 121C90.1 121 87 117.9 87 114L87 104C87 102.3 85.7 101 84 101L4 101 z M 7 107L81 107L81 114C81 116.6 81.8 119 83 121L14 121C10.1 121 7 117.9 7 114L7 107 z"/></svg>